<svg id="svg" xmlns="http://www.w3.org/2000/svg" xmlns:xlink="http://www.w3.org/1999/xlink" width="400" height="400" viewBox="0, 0, 400,400"><g id="svgg"><path id="path0" d="M213.594 31.151 C 212.047 31.211,210.570 31.357,210.313 31.473 C 210.055 31.590,208.086 31.854,205.938 32.060 C 203.789 32.266,201.117 32.653,200.000 32.919 C 198.883 33.185,197.547 33.489,197.031 33.596 C 194.949 34.025,191.995 34.766,191.406 35.006 C 189.920 35.614,188.684 35.611,187.337 34.997 C 186.586 34.655,185.823 34.375,185.642 34.375 C 185.461 34.375,185.313 34.250,185.313 34.098 C 185.313 33.946,184.926 33.745,184.453 33.652 C 183.415 33.447,181.149 32.869,179.783 32.459 C 179.234 32.294,177.546 32.085,176.033 31.993 C 174.519 31.901,172.988 31.685,172.629 31.513 C 172.262 31.336,170.896 31.272,169.504 31.366 C 161.401 31.915,158.962 32.163,158.656 32.469 C 158.467 32.658,157.532 32.816,156.578 32.820 C 155.624 32.824,154.281 32.975,153.594 33.156 C 152.906 33.337,151.781 33.594,151.094 33.729 C 150.406 33.863,148.930 34.151,147.813 34.368 C 146.695 34.586,145.500 34.880,145.156 35.021 C 144.813 35.162,143.793 35.369,142.891 35.481 C 141.989 35.592,141.182 35.795,141.098 35.931 C 141.014 36.067,140.314 36.273,139.542 36.388 C 138.771 36.504,138.068 36.715,137.979 36.858 C 137.891 37.000,137.308 37.213,136.684 37.330 C 136.059 37.447,135.319 37.664,135.040 37.811 C 134.760 37.959,132.703 38.955,130.469 40.025 C 128.234 41.095,126.336 42.055,126.250 42.157 C 126.018 42.434,124.940 43.085,124.141 43.431 C 123.754 43.598,123.437 43.863,123.438 44.021 C 123.438 44.178,123.121 44.390,122.734 44.491 C 122.348 44.591,121.290 45.240,120.384 45.931 C 119.478 46.622,118.669 47.188,118.584 47.188 C 118.361 47.187,114.044 50.407,112.421 51.785 C 111.654 52.436,110.569 53.320,110.009 53.750 C 109.450 54.180,108.576 54.918,108.066 55.391 C 107.556 55.863,107.042 56.250,106.922 56.250 C 106.803 56.250,106.051 56.848,105.251 57.578 C 104.451 58.309,103.475 59.117,103.082 59.375 C 102.690 59.633,101.977 60.218,101.500 60.676 C 101.022 61.134,100.502 61.556,100.344 61.614 C 100.065 61.716,96.089 65.232,94.306 66.953 C 93.816 67.426,93.359 67.813,93.289 67.813 C 92.664 67.813,85.320 75.601,82.712 79.029 C 76.825 86.769,71.266 95.870,70.000 99.844 C 69.780 100.531,69.128 102.039,68.551 103.195 C 67.973 104.351,67.496 105.547,67.490 105.852 C 67.485 106.157,67.274 106.679,67.021 107.013 C 66.769 107.346,66.563 108.006,66.563 108.479 C 66.563 108.951,66.430 109.420,66.268 109.520 C 66.106 109.620,65.877 110.367,65.760 111.179 C 65.642 111.992,65.441 112.797,65.312 112.969 C 65.184 113.141,65.000 113.703,64.904 114.219 C 64.608 115.806,64.033 118.208,63.568 119.802 C 63.325 120.638,63.125 121.719,63.125 122.205 C 63.125 122.691,62.994 123.169,62.834 123.268 C 62.675 123.367,62.446 124.254,62.327 125.239 C 62.207 126.225,62.022 127.172,61.914 127.344 C 61.711 127.668,61.145 130.160,60.600 133.125 C 60.426 134.070,60.167 135.060,60.024 135.325 C 59.881 135.590,59.663 136.680,59.539 137.748 C 59.415 138.815,59.201 139.758,59.064 139.843 C 58.926 139.928,58.715 140.982,58.594 142.186 C 58.473 143.390,58.264 144.375,58.129 144.375 C 57.995 144.375,57.784 145.184,57.662 146.172 C 57.540 147.160,57.330 148.109,57.197 148.281 C 57.063 148.453,56.875 149.016,56.780 149.531 C 56.685 150.047,56.386 151.348,56.116 152.422 C 54.849 157.462,54.615 158.415,54.176 160.313 C 53.917 161.430,53.540 163.117,53.337 164.063 C 53.135 165.008,52.879 165.922,52.770 166.094 C 52.661 166.266,52.469 167.180,52.344 168.125 C 52.220 169.070,52.008 169.984,51.875 170.156 C 51.742 170.328,51.531 171.242,51.406 172.188 C 51.282 173.133,51.071 174.047,50.937 174.219 C 50.804 174.391,50.593 175.305,50.469 176.250 C 50.344 177.195,50.137 178.109,50.008 178.281 C 49.879 178.453,49.678 179.227,49.562 180.000 C 49.445 180.773,49.223 181.828,49.067 182.344 C 48.418 184.491,47.734 187.072,47.661 187.656 C 47.617 188.000,47.423 188.677,47.229 189.161 C 47.034 189.645,46.875 190.375,46.875 190.783 C 46.875 191.192,46.744 191.606,46.584 191.705 C 46.425 191.804,46.196 192.691,46.077 193.677 C 45.958 194.662,45.751 195.609,45.617 195.781 C 45.482 195.953,45.272 196.904,45.150 197.895 C 45.027 198.885,44.813 199.766,44.673 199.853 C 44.533 199.939,44.321 200.816,44.202 201.802 C 44.083 202.787,43.876 203.734,43.742 203.906 C 43.607 204.078,43.398 205.027,43.275 206.016 C 43.153 207.004,42.945 207.813,42.812 207.813 C 42.679 207.813,42.472 208.480,42.350 209.297 C 42.228 210.113,42.024 210.922,41.895 211.094 C 41.767 211.266,41.344 212.813,40.957 214.531 C 39.679 220.197,38.160 225.590,37.372 227.261 C 36.945 228.166,36.227 230.242,35.778 231.875 C 33.304 240.857,32.071 244.341,30.757 246.062 C 30.193 246.801,29.486 248.165,29.186 249.093 C 28.887 250.022,28.545 250.852,28.427 250.938 C 28.309 251.023,28.114 251.758,27.994 252.571 C 27.874 253.383,27.644 254.130,27.482 254.230 C 27.320 254.330,27.187 254.720,27.186 255.097 C 27.185 255.473,26.984 256.163,26.741 256.631 C 26.497 257.098,26.200 258.260,26.081 259.213 C 25.962 260.166,25.740 261.023,25.588 261.116 C 25.235 261.335,25.224 275.938,25.578 275.938 C 25.724 275.938,25.933 277.299,26.042 278.963 C 26.151 280.627,26.367 282.069,26.520 282.166 C 26.674 282.264,26.901 283.223,27.024 284.297 C 27.148 285.372,27.376 286.329,27.531 286.425 C 27.686 286.521,27.813 286.982,27.813 287.449 C 27.813 287.916,28.003 288.576,28.237 288.915 C 28.470 289.254,28.764 290.094,28.890 290.781 C 29.016 291.469,29.228 292.172,29.361 292.344 C 29.495 292.516,29.907 293.544,30.277 294.629 C 30.961 296.632,33.330 301.590,33.741 301.875 C 33.865 301.961,34.061 302.418,34.177 302.891 C 34.292 303.363,34.525 303.750,34.693 303.750 C 34.862 303.750,35.000 304.021,35.000 304.353 C 35.000 304.684,35.176 305.147,35.391 305.382 C 35.911 305.949,36.498 306.879,36.856 307.704 C 37.017 308.074,37.290 308.464,37.462 308.570 C 37.635 308.677,38.089 309.392,38.472 310.159 C 38.855 310.926,39.496 311.861,39.897 312.237 C 40.297 312.614,40.625 313.052,40.625 313.213 C 40.625 313.538,42.518 316.035,42.888 316.198 C 43.018 316.255,43.125 316.430,43.125 316.586 C 43.125 316.855,44.741 319.127,45.880 320.460 C 46.169 320.799,46.547 321.314,46.719 321.605 C 46.891 321.895,47.579 322.724,48.248 323.446 C 48.917 324.167,49.959 325.410,50.563 326.207 C 51.167 327.004,51.757 327.727,51.875 327.813 C 51.993 327.898,52.598 328.640,53.220 329.461 C 53.842 330.282,54.847 331.477,55.454 332.117 C 56.061 332.757,56.558 333.399,56.560 333.543 C 56.566 334.095,62.499 339.688,63.079 339.688 C 63.411 339.688,63.764 339.898,63.863 340.156 C 64.007 340.533,64.707 340.626,67.412 340.628 L 70.781 340.630 72.027 343.206 C 72.713 344.622,73.451 345.967,73.668 346.194 C 73.885 346.421,74.063 346.774,74.063 346.979 C 74.063 347.183,74.397 347.711,74.805 348.151 C 75.214 348.592,75.645 349.258,75.764 349.632 C 75.882 350.006,76.111 350.313,76.271 350.313 C 76.431 350.313,76.563 350.497,76.563 350.722 C 76.563 350.948,76.809 351.405,77.109 351.738 C 77.410 352.072,78.069 352.907,78.574 353.594 C 79.759 355.208,84.481 359.930,86.094 361.114 C 86.781 361.618,87.528 362.277,87.752 362.578 C 87.977 362.879,88.337 363.125,88.553 363.125 C 88.768 363.125,89.283 363.441,89.695 363.828 C 90.591 364.667,90.933 364.866,94.375 366.547 C 95.836 367.260,97.275 367.977,97.574 368.141 C 97.872 368.304,98.311 368.438,98.550 368.438 C 98.788 368.438,99.669 368.744,100.507 369.119 C 102.091 369.828,104.646 370.450,108.125 370.974 C 109.242 371.143,110.432 371.434,110.769 371.622 C 111.170 371.845,114.214 371.962,119.532 371.959 C 128.453 371.954,128.443 371.956,131.233 369.868 C 131.825 369.425,132.510 369.062,132.756 369.062 C 133.535 369.062,138.496 365.839,138.823 365.120 C 139.189 364.317,138.789 363.353,133.975 353.438 C 132.265 349.914,130.447 346.117,129.936 345.000 C 127.943 340.643,127.104 338.848,126.379 337.393 C 125.964 336.561,125.625 335.738,125.625 335.565 C 125.625 335.262,125.114 333.988,124.207 332.031 C 123.967 331.516,123.468 330.180,123.097 329.063 C 122.726 327.945,122.300 326.898,122.149 326.734 C 121.998 326.571,121.875 326.200,121.875 325.911 C 121.875 325.621,121.665 324.981,121.408 324.489 C 120.689 323.110,120.882 321.923,121.692 322.734 C 121.821 322.863,122.583 323.136,123.385 323.341 C 124.187 323.545,125.512 323.886,126.328 324.097 C 127.145 324.308,127.813 324.597,127.813 324.740 C 127.813 324.883,128.199 325.001,128.672 325.002 C 129.145 325.003,129.934 325.214,130.426 325.471 C 130.919 325.727,131.551 325.938,131.833 325.939 C 132.114 325.940,132.754 326.155,133.255 326.417 C 133.756 326.678,135.233 326.969,136.536 327.064 C 137.840 327.159,139.188 327.357,139.531 327.503 C 140.434 327.888,141.845 328.104,146.250 328.529 C 148.398 328.737,150.347 329.029,150.579 329.179 C 151.220 329.592,174.846 329.779,179.531 329.407 C 181.766 329.230,185.563 328.859,187.969 328.583 C 190.375 328.307,193.258 328.007,194.375 327.918 C 195.492 327.828,196.547 327.640,196.719 327.499 C 196.891 327.358,198.824 327.141,201.016 327.017 C 203.207 326.892,205.000 326.686,205.000 326.558 C 205.000 326.430,206.793 326.223,208.984 326.099 C 211.176 325.974,213.121 325.749,213.306 325.598 C 213.492 325.448,214.898 325.232,216.431 325.120 C 217.964 325.007,219.371 324.796,219.556 324.651 C 219.742 324.506,221.148 324.295,222.681 324.182 C 224.214 324.069,225.621 323.859,225.806 323.713 C 225.992 323.568,227.398 323.357,228.931 323.245 C 230.464 323.132,231.859 322.934,232.031 322.805 C 232.203 322.676,233.117 322.468,234.063 322.344 C 235.008 322.219,235.922 322.011,236.094 321.882 C 236.266 321.752,237.157 321.550,238.074 321.433 C 238.991 321.317,239.976 321.100,240.262 320.951 C 241.215 320.455,244.197 320.011,246.094 320.084 C 247.333 320.131,248.340 319.978,249.063 319.632 C 249.664 319.344,250.753 319.015,251.483 318.902 C 252.212 318.788,252.882 318.577,252.972 318.432 C 253.062 318.287,253.906 318.072,254.849 317.955 C 255.791 317.837,256.563 317.628,256.563 317.491 C 256.563 317.354,257.124 317.148,257.811 317.032 C 258.497 316.916,259.139 316.692,259.236 316.535 C 259.333 316.378,259.650 316.249,259.940 316.248 C 260.231 316.247,260.872 316.036,261.364 315.779 C 261.856 315.523,262.478 315.313,262.745 315.313 C 263.013 315.312,264.157 314.876,265.288 314.342 C 266.419 313.808,268.061 313.035,268.937 312.623 C 269.814 312.212,270.676 311.875,270.852 311.875 C 271.029 311.875,271.349 311.664,271.563 311.406 C 271.776 311.148,272.198 310.937,272.500 310.937 C 272.802 310.937,273.224 310.727,273.438 310.469 C 273.651 310.211,274.095 310.000,274.423 310.000 C 274.751 310.000,275.097 309.798,275.192 309.550 C 275.287 309.303,275.775 309.011,276.276 308.901 C 276.777 308.790,277.188 308.580,277.188 308.434 C 277.188 308.287,277.482 308.074,277.842 307.959 C 278.202 307.845,279.130 307.308,279.905 306.767 C 280.680 306.225,281.538 305.641,281.812 305.469 C 282.507 305.032,282.833 304.788,283.906 303.898 L 284.844 303.120 284.945 304.100 C 285.000 304.639,284.895 305.230,284.710 305.415 C 284.526 305.599,284.369 306.460,284.361 307.328 C 284.354 308.196,284.203 309.539,284.026 310.313 C 283.849 311.086,283.563 312.983,283.391 314.528 C 283.218 316.073,282.961 317.479,282.819 317.653 C 282.677 317.827,282.459 318.813,282.335 319.844 C 282.212 320.875,282.001 321.859,281.867 322.031 C 281.732 322.203,281.523 323.152,281.400 324.141 C 281.278 325.129,281.065 325.938,280.926 325.938 C 280.788 325.938,280.577 326.852,280.457 327.969 C 280.338 329.086,280.134 330.000,280.004 330.000 C 279.874 330.000,279.676 330.697,279.562 331.550 C 279.449 332.402,279.220 333.184,279.053 333.287 C 278.887 333.390,278.750 333.861,278.750 334.334 C 278.750 334.806,278.544 335.466,278.291 335.800 C 278.039 336.133,277.828 336.765,277.822 337.203 C 277.817 337.641,277.695 338.134,277.550 338.297 C 277.406 338.460,277.101 339.438,276.873 340.469 C 276.644 341.500,276.206 342.999,275.900 343.801 C 274.659 347.049,274.097 352.019,274.922 352.455 C 275.641 352.835,281.595 352.312,283.415 351.709 C 284.176 351.456,285.125 351.250,285.524 351.250 C 285.923 351.250,286.250 351.121,286.250 350.962 C 286.250 350.804,287.164 350.577,288.281 350.457 C 289.398 350.338,290.313 350.132,290.313 350.000 C 290.313 349.868,291.227 349.662,292.344 349.543 C 293.461 349.423,294.375 349.197,294.375 349.041 C 294.375 348.885,294.941 348.667,295.632 348.556 C 296.323 348.446,296.964 348.233,297.057 348.084 C 297.149 347.935,297.462 347.812,297.753 347.811 C 298.043 347.810,298.684 347.599,299.176 347.342 C 299.669 347.085,300.280 346.875,300.534 346.875 C 300.789 346.875,301.371 346.680,301.827 346.442 C 302.283 346.205,303.500 345.636,304.531 345.180 C 305.563 344.723,306.617 344.217,306.875 344.055 C 307.133 343.892,307.784 343.561,308.321 343.318 C 308.859 343.075,309.394 342.721,309.512 342.532 C 309.629 342.342,309.923 342.188,310.166 342.188 C 310.692 342.188,313.438 340.301,313.438 339.940 C 313.438 339.801,313.575 339.688,313.743 339.688 C 314.184 339.688,318.438 336.538,318.438 336.212 C 318.438 336.061,318.605 335.938,318.809 335.938 C 319.510 335.938,326.107 328.775,326.631 327.445 C 326.754 327.132,326.988 326.875,327.151 326.875 C 327.313 326.875,327.984 325.926,328.641 324.766 C 329.298 323.605,330.004 322.375,330.210 322.031 C 330.577 321.420,331.322 319.906,333.153 316.055 C 333.653 315.003,334.063 313.982,334.063 313.786 C 334.063 313.589,334.195 313.185,334.356 312.886 C 334.518 312.588,334.731 311.957,334.831 311.484 C 334.930 311.012,335.160 310.625,335.341 310.625 C 335.522 310.625,335.881 310.414,336.138 310.156 C 336.396 309.898,336.878 309.688,337.210 309.688 C 337.541 309.688,337.813 309.556,337.813 309.396 C 337.813 309.236,338.129 309.006,338.516 308.886 C 338.902 308.765,339.731 308.263,340.357 307.771 C 340.984 307.278,341.652 306.875,341.842 306.875 C 342.032 306.875,342.189 306.770,342.190 306.641 C 342.192 306.512,342.825 306.129,343.597 305.789 C 344.369 305.450,345.000 305.073,345.000 304.951 C 345.000 304.829,345.246 304.651,345.547 304.556 C 345.848 304.460,346.452 304.064,346.890 303.675 C 347.327 303.287,348.051 302.758,348.498 302.500 C 350.879 301.127,356.418 296.130,358.722 293.277 C 359.871 291.855,362.813 287.340,362.813 286.999 C 362.813 286.787,362.930 286.568,363.074 286.510 C 363.422 286.372,366.978 279.016,367.657 277.031 C 367.951 276.172,368.312 275.188,368.460 274.844 C 369.810 271.703,370.580 254.150,369.431 252.709 C 369.271 252.508,369.038 251.500,368.914 250.469 C 368.789 249.438,368.596 248.453,368.484 248.281 C 368.373 248.109,368.114 247.195,367.911 246.250 C 367.707 245.305,367.398 243.969,367.225 243.281 C 367.052 242.594,366.756 241.328,366.568 240.469 C 366.379 239.609,366.090 238.662,365.925 238.364 C 365.760 238.065,365.624 237.432,365.623 236.957 C 365.622 236.482,365.420 235.708,365.174 235.236 C 364.928 234.764,364.631 233.743,364.515 232.967 C 364.398 232.190,364.187 231.483,364.044 231.395 C 363.902 231.307,363.690 230.571,363.572 229.758 C 363.455 228.946,363.259 228.141,363.137 227.969 C 363.016 227.797,362.596 226.672,362.205 225.469 C 361.813 224.266,361.368 223.148,361.215 222.984 C 361.063 222.821,360.938 222.420,360.938 222.094 C 360.938 221.768,360.740 221.058,360.498 220.516 C 360.257 219.974,359.805 218.828,359.495 217.969 C 359.184 217.109,358.750 216.055,358.530 215.625 C 358.309 215.195,358.128 214.596,358.127 214.293 C 358.126 213.990,358.000 213.497,357.847 213.199 C 356.826 211.210,355.625 208.370,355.625 207.945 C 355.625 207.668,355.422 207.067,355.173 206.611 C 354.925 206.155,354.514 205.289,354.261 204.688 C 351.990 199.291,350.938 196.642,350.938 196.319 C 350.938 196.109,350.800 195.938,350.631 195.938 C 350.462 195.938,350.240 195.551,350.136 195.078 C 349.927 194.125,349.683 193.552,347.835 189.676 C 347.135 188.208,346.563 186.824,346.563 186.599 C 346.563 186.374,346.362 185.817,346.118 185.361 C 345.434 184.085,344.479 181.853,344.025 180.469 C 343.799 179.781,343.434 178.941,343.214 178.602 C 342.993 178.263,342.813 177.752,342.813 177.466 C 342.813 177.180,342.602 176.544,342.346 176.051 C 342.089 175.559,341.878 174.798,341.877 174.359 C 341.876 173.921,341.742 173.429,341.580 173.266 C 341.305 172.988,341.104 172.313,340.307 168.984 C 340.132 168.254,339.860 167.375,339.702 167.031 C 339.544 166.688,339.257 165.563,339.063 164.531 C 338.870 163.500,338.499 161.672,338.239 160.469 C 337.979 159.266,337.639 157.183,337.484 155.840 C 337.328 154.497,337.095 153.232,336.967 153.028 C 336.838 152.823,336.559 150.898,336.346 148.750 C 335.775 142.983,335.436 140.426,334.897 137.813 C 333.251 129.839,332.581 126.882,330.899 120.156 C 327.582 106.901,325.657 100.319,324.339 97.739 C 324.187 97.440,324.063 96.993,324.063 96.745 C 324.063 96.497,323.887 96.102,323.672 95.867 C 323.457 95.632,323.022 94.954,322.705 94.361 C 321.503 92.110,321.078 91.407,320.571 90.836 C 320.284 90.512,319.880 89.840,319.674 89.342 C 319.468 88.845,319.176 88.438,319.025 88.438 C 318.874 88.438,318.746 88.262,318.741 88.047 C 318.737 87.832,318.139 86.796,317.413 85.744 C 314.063 80.889,313.298 79.816,312.913 79.431 C 312.686 79.204,312.499 78.922,312.499 78.806 C 312.498 78.689,312.111 78.168,311.639 77.648 C 311.167 77.127,310.016 75.791,309.081 74.679 C 307.572 72.885,304.559 69.668,301.224 66.290 C 299.683 64.729,295.676 61.150,295.120 60.837 C 294.869 60.696,294.265 60.204,293.778 59.743 C 291.558 57.646,282.768 51.563,281.957 51.563 C 281.740 51.563,281.563 51.422,281.563 51.250 C 281.563 51.078,281.401 50.938,281.204 50.938 C 281.007 50.938,280.128 50.465,279.251 49.889 C 276.704 48.213,267.605 43.442,266.953 43.439 C 266.738 43.438,266.563 43.308,266.563 43.150 C 266.563 42.992,266.141 42.770,265.625 42.656 C 265.109 42.543,264.688 42.321,264.688 42.163 C 264.688 42.004,264.469 41.875,264.202 41.875 C 263.935 41.875,262.958 41.453,262.031 40.938 C 261.105 40.422,260.126 40.000,259.856 40.000 C 259.587 40.000,259.122 39.868,258.824 39.707 C 258.525 39.546,257.578 39.107,256.719 38.732 C 255.859 38.357,254.927 37.936,254.648 37.797 C 254.368 37.657,253.630 37.447,253.007 37.330 C 252.384 37.214,251.875 37.004,251.875 36.865 C 251.875 36.726,251.455 36.520,250.941 36.407 C 250.427 36.294,249.927 36.072,249.829 35.913 C 249.731 35.755,249.343 35.624,248.966 35.623 C 248.589 35.622,247.878 35.411,247.386 35.154 C 246.894 34.898,246.219 34.688,245.886 34.688 C 245.554 34.688,244.902 34.501,244.438 34.273 C 243.973 34.044,242.469 33.606,241.094 33.298 C 239.719 32.991,238.283 32.620,237.903 32.476 C 237.523 32.331,236.469 32.118,235.559 32.002 C 234.650 31.886,233.709 31.635,233.468 31.443 C 233.033 31.096,219.900 30.903,213.594 31.151 M226.777 41.589 C 226.963 41.776,228.785 42.045,230.824 42.186 C 234.873 42.468,237.045 42.858,237.588 43.400 C 237.780 43.593,238.254 43.750,238.642 43.750 C 239.029 43.750,239.669 43.882,240.063 44.043 C 240.458 44.204,241.836 44.646,243.125 45.025 C 244.414 45.404,245.746 45.905,246.085 46.138 C 246.424 46.372,246.952 46.563,247.257 46.563 C 247.563 46.563,247.813 46.703,247.813 46.875 C 247.813 47.047,248.178 47.188,248.624 47.188 C 249.070 47.188,249.808 47.391,250.264 47.639 C 251.619 48.377,253.214 49.002,254.297 49.220 C 254.855 49.333,255.313 49.554,255.313 49.712 C 255.313 49.871,255.475 50.000,255.674 50.000 C 255.873 50.000,257.596 50.760,259.502 51.688 C 261.409 52.617,263.180 53.461,263.438 53.564 C 263.695 53.667,264.750 54.241,265.781 54.839 C 266.813 55.437,268.465 56.310,269.453 56.778 C 270.441 57.247,271.250 57.730,271.250 57.853 C 271.250 57.975,271.672 58.168,272.188 58.281 C 272.703 58.395,273.125 58.617,273.125 58.775 C 273.125 58.933,273.284 59.063,273.478 59.063 C 273.673 59.063,274.511 59.550,275.341 60.147 C 276.171 60.743,277.576 61.610,278.464 62.075 C 279.351 62.539,280.513 63.317,281.046 63.803 C 281.579 64.289,282.264 64.688,282.570 64.688 C 282.875 64.688,283.125 64.822,283.125 64.986 C 283.125 65.150,283.793 65.780,284.609 66.387 C 285.426 66.994,286.300 67.669,286.552 67.886 C 286.805 68.103,288.000 69.102,289.209 70.106 C 291.898 72.340,301.250 81.864,301.250 82.370 C 301.250 82.528,301.680 83.029,303.789 85.326 C 304.240 85.817,304.702 86.402,304.817 86.625 C 305.365 87.696,305.907 88.540,306.159 88.714 C 306.311 88.820,306.820 89.539,307.288 90.313 C 307.756 91.086,308.619 92.352,309.205 93.125 C 309.791 93.898,310.280 94.630,310.292 94.750 C 310.317 95.014,312.225 97.904,312.520 98.125 C 312.634 98.211,312.836 98.633,312.969 99.063 C 313.101 99.492,313.296 99.914,313.401 100.000 C 313.726 100.264,314.367 101.362,314.723 102.266 C 314.909 102.738,315.188 103.125,315.343 103.125 C 315.498 103.125,315.625 103.406,315.625 103.750 C 315.625 104.094,315.763 104.375,315.932 104.375 C 316.100 104.375,316.333 104.762,316.448 105.234 C 316.564 105.707,316.755 106.164,316.872 106.250 C 317.325 106.581,319.026 110.522,319.165 111.563 C 319.246 112.164,319.836 113.992,320.476 115.625 C 322.867 121.725,324.073 128.078,324.690 137.813 C 324.880 140.820,325.120 143.492,325.221 143.750 C 325.413 144.235,326.178 151.062,326.456 154.766 C 326.543 155.926,326.726 156.875,326.864 156.875 C 327.002 156.875,327.212 157.788,327.332 158.903 C 327.451 160.018,327.660 161.000,327.796 161.084 C 327.932 161.167,328.140 162.220,328.258 163.423 C 328.377 164.626,328.590 165.682,328.731 165.770 C 328.873 165.857,329.087 166.843,329.206 167.961 C 329.326 169.079,329.537 170.063,329.675 170.149 C 329.814 170.234,330.024 171.077,330.142 172.022 C 330.260 172.967,330.474 173.813,330.618 173.902 C 330.761 173.991,330.976 174.766,331.094 175.625 C 331.212 176.484,331.436 177.266,331.592 177.362 C 331.748 177.458,331.875 177.919,331.875 178.386 C 331.875 178.854,332.065 179.513,332.296 179.852 C 332.528 180.191,332.808 180.939,332.919 181.513 C 333.030 182.087,333.473 183.259,333.904 184.117 C 334.335 184.975,334.688 185.876,334.688 186.119 C 334.688 186.363,334.828 186.563,335.000 186.563 C 335.172 186.563,335.313 186.974,335.313 187.478 C 335.313 187.981,335.523 188.604,335.781 188.862 C 336.039 189.119,336.250 189.520,336.250 189.752 C 336.250 189.984,336.440 190.451,336.672 190.790 C 336.904 191.129,337.196 191.824,337.320 192.334 C 337.539 193.231,338.144 194.631,340.036 198.618 C 340.532 199.663,340.938 200.686,340.938 200.890 C 340.938 201.095,341.489 202.420,342.164 203.835 C 342.838 205.249,343.480 206.723,343.591 207.109 C 343.702 207.496,343.923 207.812,344.084 207.813 C 344.244 207.813,344.380 208.129,344.386 208.516 C 344.391 208.902,344.668 209.781,345.000 210.469 C 345.332 211.156,345.609 211.895,345.614 212.109 C 345.620 212.324,345.754 212.500,345.913 212.500 C 346.071 212.500,346.292 212.957,346.405 213.516 C 346.599 214.481,347.229 216.159,347.788 217.198 C 347.930 217.461,348.144 218.123,348.263 218.669 C 348.383 219.214,348.744 220.204,349.064 220.867 C 349.385 221.531,349.748 222.476,349.872 222.969 C 349.995 223.462,350.285 224.226,350.515 224.667 C 350.745 225.108,350.935 225.645,350.936 225.859 C 350.937 226.074,351.078 226.250,351.250 226.250 C 351.422 226.250,351.563 226.637,351.564 227.109 C 351.565 227.582,351.762 228.344,352.001 228.803 C 352.241 229.261,352.533 230.210,352.652 230.912 C 352.770 231.614,352.996 232.188,353.152 232.188 C 353.309 232.188,353.438 232.574,353.439 233.047 C 353.440 233.520,353.632 234.271,353.864 234.717 C 354.097 235.162,354.390 236.076,354.515 236.748 C 354.641 237.419,354.854 238.109,354.989 238.281 C 355.123 238.453,355.335 239.297,355.459 240.156 C 355.582 241.016,355.792 241.859,355.925 242.031 C 356.058 242.203,356.264 243.104,356.382 244.033 C 356.500 244.962,356.782 246.087,357.007 246.533 C 357.233 246.979,357.592 248.117,357.804 249.063 C 358.017 250.008,358.316 251.023,358.468 251.319 C 358.620 251.615,358.837 252.880,358.950 254.132 C 359.064 255.383,359.288 256.492,359.449 256.598 C 359.859 256.866,359.849 266.147,359.438 266.642 C 359.258 266.860,359.011 267.915,358.890 268.987 C 358.769 270.060,358.564 270.937,358.436 270.937 C 358.308 270.937,358.115 271.380,358.007 271.920 C 357.898 272.461,357.248 274.059,356.561 275.471 C 355.874 276.884,355.313 278.139,355.313 278.261 C 355.312 278.383,355.102 278.693,354.844 278.951 C 354.586 279.209,354.375 279.691,354.375 280.022 C 354.375 280.354,354.248 280.625,354.093 280.625 C 353.938 280.625,353.648 281.012,353.450 281.484 C 352.826 282.967,352.361 283.750,352.103 283.750 C 351.967 283.750,351.754 284.013,351.631 284.335 C 351.339 285.096,349.532 287.315,348.051 288.729 C 345.683 290.990,345.035 291.562,344.841 291.563 C 344.732 291.563,344.407 291.798,344.119 292.086 C 343.375 292.831,339.310 295.792,338.750 295.998 C 338.338 296.150,338.293 294.759,338.377 284.413 C 338.434 277.363,338.337 271.468,338.134 269.688 C 337.949 268.055,337.662 265.413,337.497 263.817 C 337.333 262.221,337.055 260.649,336.880 260.322 C 336.705 259.996,336.556 259.051,336.549 258.224 C 336.541 257.396,336.393 256.086,336.220 255.313 C 336.047 254.539,335.709 252.711,335.471 251.250 C 334.726 246.688,334.607 246.103,334.367 245.781 C 334.238 245.609,334.031 244.695,333.906 243.750 C 333.782 242.805,333.571 241.891,333.438 241.719 C 333.304 241.547,333.094 240.655,332.971 239.737 C 332.847 238.819,332.551 237.694,332.312 237.237 C 332.074 236.780,331.878 236.176,331.877 235.895 C 331.876 235.614,331.665 234.981,331.408 234.489 C 331.151 233.997,330.940 233.304,330.939 232.949 C 330.938 232.595,330.605 231.610,330.198 230.762 C 329.791 229.913,329.360 228.867,329.241 228.438 C 329.006 227.593,328.952 227.463,327.520 224.275 C 326.993 223.103,326.563 221.872,326.563 221.541 C 326.563 221.209,326.422 220.938,326.250 220.938 C 326.078 220.938,325.938 220.777,325.938 220.581 C 325.938 219.966,319.516 206.855,319.072 206.563 C 318.941 206.477,318.726 206.055,318.594 205.625 C 318.461 205.195,318.267 204.773,318.161 204.688 C 318.055 204.602,317.692 203.969,317.353 203.281 C 317.014 202.594,316.034 201.293,315.175 200.391 L 313.614 198.750 311.104 198.755 C 308.773 198.760,308.519 198.826,307.548 199.681 L 306.503 200.603 306.611 203.791 C 306.685 205.984,306.841 207.020,307.109 207.110 C 307.324 207.181,307.500 207.499,307.500 207.816 C 307.500 208.133,307.676 208.579,307.891 208.806 C 308.107 209.033,308.564 209.781,308.907 210.469 C 309.250 211.156,309.707 211.831,309.922 211.969 C 310.137 212.106,310.313 212.476,310.313 212.790 C 310.313 213.104,310.523 213.536,310.781 213.750 C 311.039 213.964,311.250 214.386,311.250 214.688 C 311.250 214.989,311.461 215.411,311.719 215.625 C 311.977 215.839,312.188 216.261,312.188 216.563 C 312.188 216.864,312.398 217.286,312.656 217.500 C 312.914 217.714,313.125 218.070,313.125 218.291 C 313.125 218.512,313.464 219.373,313.879 220.206 C 315.866 224.195,317.500 227.733,317.500 228.046 C 317.500 228.238,317.922 229.305,318.438 230.419 C 318.953 231.533,319.375 232.598,319.375 232.785 C 319.375 232.972,319.497 233.125,319.646 233.125 C 319.796 233.125,319.997 233.720,320.095 234.446 C 320.192 235.173,320.422 235.818,320.605 235.879 C 320.788 235.940,320.938 236.365,320.939 236.823 C 320.940 237.281,321.138 238.033,321.379 238.495 C 321.619 238.956,321.916 239.799,322.038 240.370 C 322.160 240.940,322.368 241.547,322.501 241.719 C 322.634 241.891,322.846 242.799,322.972 243.738 C 323.098 244.676,323.319 245.660,323.462 245.925 C 323.604 246.190,323.876 247.250,324.064 248.281 C 324.253 249.313,324.563 251.000,324.754 252.031 C 324.944 253.063,325.197 253.977,325.315 254.063 C 325.433 254.148,325.686 255.484,325.878 257.031 C 326.367 260.988,326.600 262.297,326.880 262.656 C 327.013 262.828,327.224 264.656,327.348 266.719 C 327.472 268.781,327.726 270.659,327.913 270.891 C 328.392 271.484,328.416 293.372,327.938 293.683 C 327.749 293.806,327.503 295.234,327.390 296.857 C 327.278 298.480,327.064 299.886,326.914 299.982 C 326.765 300.078,326.563 300.648,326.465 301.250 C 325.770 305.509,323.972 310.641,321.756 314.688 C 321.144 315.805,320.485 317.105,320.291 317.578 C 320.097 318.051,319.812 318.438,319.657 318.438 C 319.502 318.438,319.375 318.584,319.375 318.763 C 319.375 320.033,311.958 327.845,308.490 330.228 C 307.516 330.897,305.954 331.983,305.019 332.641 C 304.085 333.299,302.719 334.103,301.985 334.427 C 301.251 334.752,300.576 335.138,300.485 335.286 C 300.394 335.433,299.826 335.647,299.222 335.760 C 298.619 335.873,298.125 336.094,298.125 336.250 C 298.125 336.406,297.633 336.627,297.031 336.739 C 296.430 336.852,295.938 337.070,295.938 337.222 C 295.938 337.375,295.551 337.501,295.078 337.502 C 294.605 337.503,293.826 337.709,293.346 337.959 C 292.866 338.209,291.986 338.506,291.390 338.617 C 290.793 338.729,290.229 338.946,290.134 339.098 C 290.040 339.250,289.617 339.375,289.194 339.375 C 288.299 339.375,288.323 339.120,289.567 335.404 C 289.981 334.166,290.409 332.478,290.516 331.654 C 290.623 330.830,290.819 330.016,290.951 329.844 C 291.083 329.672,291.293 328.828,291.416 327.969 C 291.540 327.109,291.761 326.255,291.907 326.071 C 292.053 325.886,292.266 324.691,292.379 323.414 C 292.492 322.138,292.691 320.953,292.820 320.781 C 292.950 320.609,293.158 319.414,293.284 318.125 C 293.410 316.836,293.644 315.698,293.805 315.596 C 293.965 315.494,294.180 314.118,294.283 312.539 C 294.385 310.959,294.588 309.593,294.734 309.502 C 294.880 309.412,295.003 308.538,295.008 307.560 C 295.012 306.582,295.157 305.168,295.330 304.418 C 296.722 298.377,296.723 263.066,295.330 255.973 C 295.149 255.047,295.000 253.547,295.000 252.640 C 295.000 251.732,294.863 250.943,294.695 250.885 C 294.527 250.828,294.297 249.516,294.183 247.969 C 294.070 246.422,293.873 245.016,293.746 244.844 C 293.619 244.672,293.413 243.688,293.290 242.656 C 293.166 241.625,292.957 240.641,292.824 240.469 C 292.692 240.297,292.488 239.178,292.370 237.982 C 292.253 236.787,292.039 235.662,291.895 235.482 C 291.750 235.303,291.530 234.383,291.406 233.438 C 291.281 232.492,291.089 231.578,290.980 231.406 C 290.871 231.234,290.619 230.320,290.420 229.375 C 290.221 228.430,289.845 226.883,289.585 225.938 C 289.325 224.992,288.890 223.333,288.619 222.250 C 288.347 221.167,287.914 219.874,287.656 219.375 C 287.398 218.876,287.187 218.215,287.186 217.906 C 287.185 217.597,286.974 216.941,286.717 216.449 C 286.460 215.956,286.245 215.253,286.239 214.886 C 286.234 214.519,285.957 213.656,285.625 212.969 C 285.293 212.281,285.016 211.499,285.011 211.230 C 285.005 210.962,284.667 210.048,284.260 209.199 C 283.854 208.351,283.423 207.305,283.303 206.875 C 283.068 206.031,283.014 205.900,281.582 202.713 C 281.056 201.540,280.625 200.397,280.625 200.173 C 280.625 199.948,280.414 199.589,280.156 199.375 C 279.898 199.161,279.688 198.652,279.688 198.243 C 279.688 197.834,279.564 197.500,279.413 197.500 C 279.261 197.500,279.076 196.642,279.000 195.593 C 278.871 193.807,278.770 193.598,277.427 192.311 C 276.638 191.555,275.689 190.339,275.318 189.609 C 274.946 188.879,274.241 187.648,273.751 186.875 C 273.260 186.102,272.561 184.925,272.197 184.261 C 271.833 183.596,271.318 182.836,271.052 182.570 C 270.787 182.305,270.211 181.512,269.773 180.809 C 269.335 180.106,268.786 179.320,268.554 179.063 C 267.847 178.279,266.124 176.336,265.598 175.729 C 263.644 173.475,259.602 172.547,257.871 173.955 C 256.909 174.737,256.538 178.479,257.276 179.958 C 257.543 180.493,257.854 181.354,257.968 181.872 C 258.082 182.389,258.288 182.813,258.426 182.813 C 258.564 182.813,258.742 183.062,258.822 183.366 C 258.902 183.671,259.902 185.357,261.046 187.114 C 262.189 188.871,263.125 190.385,263.125 190.479 C 263.125 190.656,264.397 192.535,264.704 192.813 C 264.976 193.057,266.256 195.625,266.107 195.625 C 266.033 195.625,265.504 195.348,264.930 195.010 C 262.535 193.597,249.672 191.427,241.563 191.069 C 234.114 190.740,226.972 191.713,224.531 193.388 C 223.291 194.239,223.281 194.264,223.190 196.465 C 223.031 200.331,222.573 200.221,235.781 199.493 C 240.324 199.243,247.391 199.836,253.750 201.002 C 263.854 202.855,264.481 202.888,265.992 201.644 C 266.563 201.173,266.868 200.997,266.669 201.253 C 266.469 201.509,266.207 202.246,266.087 202.891 C 265.966 203.535,265.754 204.063,265.615 204.063 C 265.476 204.063,265.270 204.484,265.156 205.000 C 265.043 205.516,264.832 205.938,264.688 205.938 C 264.543 205.938,264.332 206.359,264.219 206.875 C 264.105 207.391,263.917 207.813,263.799 207.813 C 263.681 207.813,263.237 208.375,262.813 209.063 C 262.388 209.750,261.933 210.313,261.801 210.313 C 261.670 210.313,261.563 210.451,261.563 210.621 C 261.563 211.879,259.242 213.039,256.344 213.230 C 254.739 213.335,253.178 213.554,252.875 213.717 C 252.572 213.879,250.781 214.111,248.896 214.233 C 247.011 214.355,245.289 214.598,245.069 214.773 C 244.284 215.398,225.585 215.249,224.608 214.609 C 224.148 214.309,223.547 214.063,223.272 214.063 C 222.615 214.063,218.395 209.775,217.707 208.409 C 217.102 207.209,216.487 206.171,216.242 205.938 C 215.782 205.499,213.750 200.985,213.750 200.401 C 213.750 200.029,213.609 199.637,213.438 199.531 C 213.266 199.425,213.120 198.327,213.114 197.091 C 213.107 195.527,212.920 194.463,212.500 193.594 C 212.168 192.906,211.891 192.216,211.886 192.061 C 211.759 188.691,205.222 188.759,203.649 192.146 C 202.897 193.763,202.645 205.742,203.344 206.625 C 203.521 206.849,203.749 208.285,203.852 209.817 C 203.955 211.348,204.185 212.748,204.363 212.926 C 206.055 214.617,203.840 216.835,201.714 215.581 C 200.833 215.061,200.060 215.008,194.143 215.061 C 189.735 215.100,187.414 215.006,187.135 214.777 C 186.906 214.588,186.049 214.334,185.231 214.212 C 184.412 214.090,183.665 213.866,183.571 213.714 C 183.477 213.562,183.022 213.433,182.560 213.427 C 182.097 213.421,181.156 213.145,180.469 212.813 C 179.781 212.480,179.041 212.204,178.824 212.198 C 178.607 212.192,178.185 212.052,177.886 211.886 C 177.588 211.720,176.684 211.299,175.878 210.949 C 175.072 210.600,174.326 210.173,174.219 210.001 C 174.113 209.828,173.763 209.688,173.441 209.688 C 173.120 209.688,172.665 209.512,172.429 209.297 C 172.194 209.082,171.399 208.579,170.663 208.180 C 169.400 207.494,168.655 206.931,167.071 205.469 C 165.048 203.601,160.938 194.878,160.938 192.454 C 160.938 191.562,160.729 191.130,160.000 190.517 C 159.484 190.083,159.063 189.469,159.063 189.152 C 159.063 188.836,158.870 188.299,158.634 187.960 C 158.398 187.621,158.106 186.852,157.985 186.250 C 157.771 185.182,157.144 183.515,156.547 182.426 C 156.384 182.128,156.250 181.666,156.250 181.400 C 156.250 180.800,154.815 177.928,154.381 177.660 C 154.206 177.552,154.063 176.752,154.062 175.883 C 154.062 173.802,153.129 172.135,151.582 171.452 C 150.291 170.883,147.958 170.762,147.656 171.250 C 147.550 171.422,147.210 171.563,146.900 171.563 C 146.591 171.563,146.072 171.931,145.747 172.382 C 145.422 172.833,144.923 173.431,144.638 173.710 C 143.235 175.086,143.098 180.908,144.273 189.141 C 144.403 190.046,144.335 190.313,143.975 190.313 C 143.719 190.313,143.106 190.523,142.614 190.779 C 142.122 191.036,141.489 191.247,141.208 191.248 C 140.926 191.249,140.294 191.460,139.801 191.717 C 139.309 191.974,138.548 192.185,138.109 192.186 C 137.671 192.187,137.179 192.313,137.016 192.465 C 136.852 192.618,135.734 193.063,134.531 193.455 C 133.328 193.846,132.189 194.283,131.999 194.427 C 131.685 194.664,128.107 196.069,126.797 196.468 C 126.496 196.560,126.250 196.760,126.250 196.911 C 126.250 197.063,126.061 197.188,125.830 197.188 C 125.270 197.188,116.911 201.434,116.103 202.129 C 115.754 202.428,114.414 203.370,113.125 204.220 C 111.836 205.070,110.679 205.910,110.554 206.086 C 110.409 206.290,109.783 206.100,108.835 205.565 L 107.344 204.723 107.458 196.033 C 107.520 191.254,107.680 187.203,107.813 187.031 C 107.945 186.859,108.156 183.659,108.280 179.919 C 108.405 176.179,108.632 173.042,108.785 172.947 C 109.143 172.726,109.149 167.903,108.791 167.682 C 108.642 167.590,108.449 166.878,108.361 166.101 C 107.823 161.323,101.962 163.712,101.095 169.063 C 100.969 169.836,100.756 170.609,100.621 170.781 C 100.486 170.953,100.274 172.184,100.151 173.516 C 100.027 174.848,99.816 175.938,99.682 175.938 C 99.547 175.938,99.335 177.557,99.212 179.536 C 99.088 181.515,98.877 183.203,98.743 183.286 C 98.609 183.368,98.399 185.089,98.276 187.109 C 98.153 189.129,97.936 190.927,97.794 191.105 C 97.652 191.282,97.435 194.487,97.313 198.225 C 97.191 201.964,96.972 205.096,96.827 205.186 C 96.483 205.399,96.480 243.037,96.824 243.250 C 96.968 243.339,97.178 247.592,97.290 252.701 C 97.402 257.810,97.615 262.070,97.763 262.167 C 97.911 262.264,98.131 264.588,98.251 267.330 C 98.370 270.073,98.587 272.464,98.731 272.643 C 98.875 272.822,99.095 274.727,99.219 276.875 C 99.343 279.023,99.553 280.922,99.687 281.094 C 99.821 281.266,100.032 282.180,100.156 283.125 C 100.281 284.070,100.497 284.987,100.638 285.162 C 100.778 285.336,100.992 286.743,101.112 288.287 C 101.233 289.830,101.438 291.234,101.568 291.406 C 101.699 291.578,101.907 292.492,102.032 293.438 C 102.157 294.383,102.348 295.297,102.458 295.469 C 102.567 295.641,102.819 296.555,103.018 297.500 C 103.218 298.445,103.621 300.203,103.914 301.406 C 104.208 302.609,104.517 304.051,104.602 304.609 C 104.687 305.168,104.865 305.625,104.998 305.625 C 105.131 305.625,105.337 306.538,105.457 307.653 C 105.576 308.768,105.790 309.752,105.931 309.840 C 106.073 309.927,106.286 310.843,106.406 311.874 C 106.526 312.906,106.751 313.750,106.906 313.750 C 107.061 313.750,107.188 314.211,107.188 314.774 C 107.188 315.338,107.379 316.076,107.613 316.415 C 107.847 316.754,108.137 317.699,108.257 318.516 C 108.377 319.332,108.608 320.000,108.769 320.000 C 108.930 320.000,109.063 320.387,109.064 320.859 C 109.065 321.332,109.276 322.122,109.533 322.614 C 109.790 323.106,110.001 323.739,110.002 324.020 C 110.003 324.301,110.214 324.934,110.471 325.426 C 110.727 325.919,110.938 326.719,110.938 327.205 C 110.938 327.691,111.067 328.168,111.226 328.266 C 111.384 328.364,111.823 329.374,112.201 330.509 C 112.579 331.645,113.081 332.945,113.317 333.397 C 113.553 333.849,113.747 334.605,113.748 335.078 C 113.749 335.551,113.879 335.938,114.038 335.938 C 114.196 335.938,114.418 336.359,114.531 336.875 C 114.645 337.391,114.867 337.813,115.025 337.813 C 115.183 337.813,115.313 338.059,115.314 338.359 C 115.315 338.660,115.526 339.309,115.783 339.801 C 116.040 340.294,116.250 340.827,116.250 340.986 C 116.250 341.289,117.540 344.163,119.091 347.316 C 119.591 348.331,120.000 349.334,120.000 349.543 C 120.000 349.752,120.211 350.099,120.469 350.313 C 120.727 350.526,120.938 351.040,120.938 351.454 C 120.938 351.868,121.148 352.288,121.406 352.387 C 121.664 352.486,121.875 352.886,121.875 353.276 C 121.875 353.667,122.086 354.161,122.344 354.375 C 122.602 354.589,122.813 354.936,122.813 355.145 C 122.813 355.355,123.154 356.146,123.572 356.904 C 123.990 357.661,124.766 359.090,125.297 360.078 L 126.263 361.875 120.650 361.875 C 117.563 361.875,114.963 361.756,114.873 361.610 C 114.783 361.464,113.495 361.259,112.012 361.154 C 110.528 361.049,109.152 360.830,108.954 360.666 C 108.756 360.502,108.031 360.267,107.344 360.143 C 106.656 360.020,105.953 359.815,105.781 359.687 C 105.609 359.560,104.906 359.282,104.219 359.069 C 101.494 358.225,96.698 355.652,94.400 353.803 C 93.617 353.172,92.792 352.516,92.568 352.344 C 91.966 351.882,88.749 348.690,87.573 347.387 C 85.427 345.009,79.380 334.544,79.376 333.199 C 79.376 332.982,79.241 332.560,79.078 332.261 C 78.487 331.183,77.859 329.471,76.875 326.250 C 76.324 324.445,75.690 322.406,75.467 321.719 C 75.244 321.031,74.824 319.344,74.534 317.969 C 74.244 316.594,73.890 315.171,73.747 314.806 C 73.605 314.442,73.389 313.458,73.267 312.619 C 73.146 311.780,72.942 310.953,72.816 310.781 C 72.689 310.609,72.501 309.225,72.399 307.704 C 72.297 306.183,72.070 304.766,71.894 304.555 C 71.719 304.343,71.480 301.961,71.364 299.261 C 71.247 296.561,71.033 294.278,70.888 294.188 C 70.535 293.970,70.549 273.209,70.902 272.990 C 71.055 272.896,71.282 270.988,71.406 268.750 C 71.531 266.512,71.740 264.614,71.872 264.533 C 72.004 264.451,72.214 262.730,72.339 260.708 C 72.464 258.686,72.657 256.891,72.767 256.719 C 72.878 256.547,73.133 255.563,73.335 254.531 C 73.537 253.500,73.839 252.094,74.008 251.406 C 74.176 250.719,74.480 249.313,74.684 248.281 C 74.888 247.250,75.219 246.069,75.418 245.656 C 76.138 244.169,75.886 237.244,75.050 235.547 L 74.319 234.063 72.628 234.063 C 71.698 234.063,70.938 234.203,70.938 234.375 C 70.938 234.547,70.736 234.688,70.490 234.688 C 68.837 234.687,65.959 238.187,65.697 240.517 C 65.613 241.264,65.437 241.875,65.306 241.875 C 65.175 241.875,64.991 242.332,64.897 242.891 C 64.710 244.002,63.975 247.247,63.464 249.219 C 63.286 249.906,63.137 251.146,63.132 251.974 C 63.128 252.801,62.977 253.755,62.797 254.092 C 62.616 254.430,62.386 255.932,62.285 257.431 C 62.185 258.930,61.961 260.336,61.787 260.555 C 61.614 260.774,61.405 262.673,61.322 264.774 C 61.239 266.891,61.016 268.788,60.822 269.030 C 60.335 269.638,60.335 299.735,60.823 300.350 C 61.011 300.587,61.249 302.025,61.351 303.546 C 61.453 305.067,61.664 306.473,61.819 306.671 C 61.975 306.869,62.186 308.275,62.288 309.796 C 62.390 311.317,62.602 312.723,62.758 312.921 C 62.915 313.119,63.117 314.420,63.207 315.811 C 63.298 317.202,63.511 318.609,63.682 318.936 C 63.959 319.467,64.444 321.535,64.920 324.219 C 65.011 324.734,65.205 325.234,65.351 325.328 C 65.790 325.613,66.062 327.500,65.664 327.500 C 65.471 327.500,65.313 327.381,65.312 327.235 C 65.312 327.090,65.015 326.633,64.652 326.220 C 64.289 325.807,63.621 324.981,63.168 324.385 C 62.715 323.789,62.133 323.066,61.875 322.777 C 61.274 322.106,60.399 321.029,59.219 319.509 C 58.703 318.845,58.035 318.051,57.734 317.745 C 57.434 317.438,57.188 317.047,57.188 316.875 C 57.188 316.703,57.072 316.563,56.931 316.562 C 56.698 316.562,55.975 315.668,51.927 310.367 C 51.182 309.392,49.503 306.977,48.197 305.000 C 46.890 303.023,45.742 301.336,45.645 301.250 C 45.205 300.859,41.562 293.691,41.562 293.217 C 41.562 292.995,41.422 292.813,41.250 292.813 C 41.078 292.813,40.938 292.658,40.938 292.469 C 40.938 292.280,40.748 291.683,40.515 291.141 C 39.627 289.068,38.750 286.692,38.750 286.358 C 38.750 286.166,38.540 285.606,38.283 285.114 C 38.026 284.622,37.815 283.840,37.814 283.378 C 37.813 282.915,37.688 282.460,37.537 282.366 C 37.385 282.273,37.160 281.385,37.036 280.395 C 36.913 279.404,36.686 278.358,36.532 278.070 C 35.866 276.822,35.045 265.863,35.569 265.214 C 35.733 265.010,35.969 264.070,36.094 263.125 C 36.218 262.180,36.429 261.266,36.562 261.094 C 36.695 260.922,36.903 260.184,37.023 259.455 C 37.143 258.725,37.354 258.059,37.492 257.974 C 37.629 257.889,37.833 257.332,37.945 256.735 C 38.057 256.139,38.353 255.259,38.604 254.779 C 38.854 254.299,39.060 253.676,39.061 253.395 C 39.062 253.114,39.273 252.481,39.529 251.989 C 39.786 251.497,39.997 250.707,39.998 250.234 C 39.999 249.762,40.136 249.375,40.302 249.375 C 40.468 249.375,40.697 248.672,40.811 247.812 C 40.925 246.953,41.141 246.250,41.290 246.250 C 41.440 246.250,41.563 246.091,41.563 245.898 C 41.563 245.704,41.972 244.684,42.472 243.632 C 43.640 241.176,45.312 236.667,45.313 235.973 C 45.313 235.679,45.443 235.304,45.603 235.141 C 46.097 234.637,47.541 230.263,47.894 228.203 C 48.078 227.129,48.337 226.250,48.470 226.250 C 48.603 226.250,48.807 225.615,48.923 224.840 C 49.039 224.064,49.259 223.353,49.411 223.259 C 49.563 223.165,49.687 222.731,49.687 222.294 C 49.687 221.858,49.886 221.058,50.128 220.516 C 50.370 219.974,50.640 219.180,50.727 218.750 C 50.814 218.320,51.122 217.195,51.412 216.250 C 51.701 215.305,52.116 213.748,52.334 212.790 C 52.552 211.833,52.890 210.752,53.084 210.389 C 53.278 210.026,53.438 209.376,53.438 208.945 C 53.437 208.514,53.564 208.084,53.719 207.988 C 53.874 207.892,54.099 206.969,54.219 205.938 C 54.339 204.906,54.549 203.992,54.688 203.906 C 54.826 203.821,55.036 202.907,55.156 201.875 C 55.276 200.843,55.490 199.927,55.631 199.840 C 55.773 199.752,55.986 198.768,56.106 197.653 C 56.225 196.538,56.431 195.625,56.563 195.625 C 56.695 195.625,56.903 194.816,57.025 193.828 C 57.148 192.840,57.357 191.891,57.491 191.719 C 57.625 191.547,57.816 190.984,57.916 190.469 C 58.428 187.832,58.929 185.746,59.122 185.451 C 59.240 185.269,59.435 184.355,59.554 183.420 C 59.673 182.484,59.879 181.578,60.011 181.406 C 60.144 181.234,60.353 180.283,60.475 179.293 C 60.598 178.302,60.808 177.424,60.943 177.340 C 61.078 177.257,61.286 176.344,61.406 175.313 C 61.526 174.281,61.737 173.367,61.875 173.281 C 62.013 173.196,62.224 172.282,62.344 171.250 C 62.464 170.218,62.674 169.304,62.812 169.219 C 62.951 169.133,63.161 168.219,63.281 167.188 C 63.401 166.156,63.616 165.239,63.759 165.151 C 63.902 165.062,64.115 164.217,64.233 163.272 C 64.351 162.327,64.559 161.486,64.695 161.402 C 64.830 161.318,65.041 160.511,65.162 159.609 C 65.283 158.707,65.488 157.828,65.618 157.656 C 65.748 157.484,65.930 156.992,66.023 156.563 C 66.115 156.133,66.425 154.797,66.710 153.594 C 67.401 150.682,68.049 147.820,68.620 145.156 C 68.878 143.953,69.288 142.055,69.532 140.938 C 69.775 139.820,70.127 138.063,70.314 137.031 C 70.501 136.000,70.771 134.940,70.914 134.675 C 71.056 134.410,71.275 133.320,71.399 132.253 C 71.523 131.186,71.737 130.313,71.875 130.313 C 72.013 130.312,72.227 129.434,72.351 128.359 C 72.474 127.285,72.668 126.336,72.781 126.250 C 72.894 126.164,73.171 125.250,73.396 124.219 C 73.825 122.259,74.034 121.383,74.810 118.281 C 75.963 113.679,76.188 112.887,76.521 112.265 C 76.716 111.901,76.875 111.321,76.875 110.975 C 76.875 110.629,77.227 109.684,77.656 108.876 C 78.086 108.068,78.438 107.103,78.438 106.732 C 78.438 106.361,78.644 105.784,78.896 105.450 C 79.149 105.117,79.360 104.633,79.367 104.375 C 79.374 104.117,79.589 103.503,79.846 103.011 C 80.102 102.519,80.312 101.977,80.313 101.806 C 80.313 101.351,83.335 95.168,84.709 92.813 C 86.435 89.853,95.357 80.422,101.116 75.469 C 102.116 74.609,103.320 73.532,103.793 73.074 C 104.266 72.617,105.645 71.441,106.858 70.461 C 108.070 69.481,109.062 68.555,109.063 68.402 C 109.063 68.250,109.238 68.122,109.453 68.117 C 109.668 68.113,110.617 67.400,111.563 66.533 C 112.508 65.666,113.659 64.756,114.122 64.511 C 114.584 64.266,115.146 63.806,115.372 63.489 C 115.597 63.171,115.936 62.854,116.124 62.784 C 116.521 62.636,118.833 60.796,119.915 59.766 C 120.321 59.379,120.736 59.063,120.838 59.063 C 120.939 59.063,121.333 58.727,121.712 58.318 C 122.092 57.908,122.706 57.477,123.076 57.359 C 123.447 57.242,123.750 57.014,123.750 56.854 C 123.750 56.694,123.954 56.563,124.203 56.563 C 124.452 56.563,124.769 56.374,124.906 56.144 C 125.044 55.913,125.859 55.320,126.719 54.825 C 127.578 54.329,128.518 53.709,128.807 53.446 C 129.096 53.184,129.870 52.689,130.526 52.347 C 131.182 52.005,131.789 51.651,131.875 51.562 C 132.307 51.111,140.428 47.188,140.930 47.188 C 141.250 47.187,141.910 46.986,142.397 46.741 C 143.597 46.135,146.465 45.313,147.380 45.313 C 147.790 45.313,148.125 45.200,148.125 45.062 C 148.125 44.812,151.003 44.272,155.199 43.734 C 156.426 43.577,157.806 43.306,158.266 43.131 C 158.727 42.956,159.839 42.813,160.739 42.813 C 161.639 42.813,162.551 42.637,162.766 42.422 C 163.292 41.895,176.476 41.858,176.808 42.383 C 176.931 42.576,177.523 42.839,178.125 42.966 C 179.777 43.318,180.242 43.656,180.465 44.669 C 181.058 47.368,186.013 48.574,189.531 46.875 C 190.219 46.543,190.957 46.266,191.172 46.261 C 191.387 46.255,191.563 46.126,191.563 45.974 C 191.563 45.821,192.371 45.597,193.359 45.475 C 194.348 45.352,195.297 45.145,195.469 45.013 C 196.027 44.585,199.174 43.791,201.048 43.606 C 202.055 43.506,203.135 43.287,203.450 43.118 C 203.764 42.950,204.453 42.813,204.979 42.813 C 205.506 42.813,205.938 42.688,205.938 42.535 C 205.938 42.382,207.767 42.155,210.003 42.031 C 212.239 41.907,214.146 41.680,214.240 41.527 C 214.495 41.115,226.361 41.173,226.777 41.589 M267.813 198.594 C 267.813 198.831,267.672 199.113,267.500 199.219 C 267.322 199.329,267.188 199.060,267.188 198.594 C 267.188 198.128,267.322 197.859,267.500 197.969 C 267.672 198.075,267.813 198.356,267.813 198.594 M147.060 201.797 C 147.168 202.270,147.663 203.511,148.159 204.556 C 148.656 205.601,149.063 206.609,149.063 206.796 C 149.063 206.982,149.168 207.182,149.297 207.240 C 149.525 207.341,151.632 211.337,151.482 211.383 C 151.440 211.396,150.963 211.652,150.421 211.953 C 149.878 212.254,149.093 212.500,148.676 212.500 C 148.258 212.500,147.812 212.605,147.683 212.734 C 146.383 214.040,127.865 214.949,126.435 213.777 C 126.247 213.624,125.283 213.397,124.293 213.275 C 123.302 213.152,122.415 212.928,122.321 212.776 C 122.227 212.624,121.814 212.500,121.402 212.500 L 120.653 212.500 121.435 211.719 C 121.864 211.289,122.339 210.938,122.489 210.938 C 122.770 210.938,124.720 209.966,125.000 209.688 C 125.371 209.317,133.031 205.625,133.429 205.625 C 133.792 205.625,136.044 204.643,138.477 203.423 C 138.757 203.282,139.495 203.072,140.118 202.955 C 140.741 202.839,141.250 202.630,141.250 202.493 C 141.250 202.355,141.824 202.145,142.526 202.027 C 143.227 201.908,144.176 201.616,144.635 201.376 C 145.995 200.667,146.834 200.812,147.060 201.797 M274.801 214.531 C 275.080 215.047,275.310 215.699,275.311 215.980 C 275.312 216.261,275.523 216.894,275.779 217.386 C 276.036 217.878,276.247 218.640,276.248 219.078 C 276.249 219.516,276.374 220.009,276.525 220.172 C 276.676 220.335,277.111 221.523,277.491 222.813 C 278.521 226.299,278.857 227.310,279.098 227.656 C 279.218 227.828,279.416 228.638,279.538 229.457 C 279.660 230.275,279.876 231.017,280.018 231.105 C 280.160 231.193,280.373 231.929,280.490 232.742 C 280.608 233.554,280.811 234.359,280.942 234.531 C 281.073 234.703,281.283 235.612,281.410 236.550 C 281.536 237.488,281.759 238.473,281.905 238.738 C 282.216 239.300,282.718 242.192,283.153 245.926 C 283.323 247.381,283.576 248.647,283.717 248.739 C 283.858 248.831,284.048 250.139,284.140 251.645 C 284.231 253.152,284.450 254.558,284.626 254.770 C 284.802 254.983,285.047 257.336,285.170 260.000 C 285.292 262.664,285.501 265.055,285.632 265.313 C 285.992 266.017,286.363 282.564,286.104 286.362 L 285.878 289.673 284.424 290.383 C 283.623 290.774,282.898 291.179,282.813 291.284 C 282.727 291.389,282.206 291.706,281.656 291.988 C 281.106 292.269,280.544 292.679,280.406 292.897 C 280.269 293.116,279.805 293.469,279.375 293.681 C 278.600 294.065,276.237 295.822,275.286 296.720 C 275.014 296.977,274.627 297.188,274.427 297.188 C 274.226 297.188,274.063 297.382,274.063 297.620 C 274.063 300.674,242.711 311.739,234.475 311.592 C 233.241 311.570,232.153 311.679,232.057 311.833 C 231.961 311.988,231.073 312.215,230.082 312.337 C 229.092 312.460,228.129 312.685,227.944 312.837 C 227.758 312.989,226.352 313.205,224.819 313.318 C 223.286 313.431,221.879 313.641,221.694 313.787 C 221.508 313.932,220.102 314.143,218.569 314.255 C 217.036 314.368,215.633 314.576,215.452 314.718 C 215.270 314.859,213.934 315.063,212.483 315.170 C 211.031 315.277,209.633 315.451,209.375 315.556 C 208.939 315.735,207.023 315.950,196.875 316.956 C 194.727 317.169,192.828 317.432,192.656 317.539 C 192.484 317.647,190.727 317.829,188.750 317.944 C 186.773 318.059,184.805 318.286,184.375 318.448 C 181.237 319.633,153.143 319.636,150.000 318.452 C 149.570 318.290,147.672 318.064,145.781 317.949 C 143.891 317.833,142.203 317.632,142.031 317.502 C 141.859 317.371,140.875 317.163,139.844 317.040 C 138.813 316.916,137.828 316.704,137.656 316.568 C 137.484 316.433,136.877 316.222,136.307 316.100 C 135.737 315.978,134.893 315.682,134.432 315.441 C 133.971 315.201,133.215 315.003,132.753 315.002 C 132.290 315.001,131.835 314.875,131.741 314.723 C 131.646 314.571,131.082 314.354,130.485 314.242 C 129.889 314.131,129.009 313.834,128.529 313.584 C 128.049 313.334,127.356 313.128,126.989 313.127 C 126.622 313.126,125.919 312.915,125.426 312.658 C 124.934 312.401,124.307 312.190,124.032 312.189 C 123.758 312.188,123.100 311.971,122.571 311.707 C 122.041 311.443,120.676 311.032,119.536 310.793 C 116.898 310.241,116.678 310.038,116.412 307.909 C 116.291 306.941,116.075 305.926,115.931 305.653 C 115.787 305.380,115.520 304.383,115.337 303.438 C 115.039 301.898,114.756 300.665,113.726 296.406 C 113.560 295.719,113.258 294.277,113.055 293.203 C 112.852 292.129,112.585 291.250,112.461 291.250 C 112.338 291.250,112.139 290.334,112.019 289.214 C 111.899 288.095,111.688 287.109,111.550 287.024 C 111.412 286.938,111.201 285.921,111.080 284.762 C 110.960 283.604,110.757 282.516,110.630 282.344 C 110.502 282.172,110.305 280.987,110.192 279.711 C 110.078 278.434,109.864 277.239,109.715 277.054 C 109.566 276.870,109.343 274.961,109.219 272.813 C 109.095 270.664,108.878 268.763,108.738 268.589 C 108.597 268.414,108.391 266.164,108.280 263.589 C 108.168 261.013,107.943 258.550,107.779 258.115 C 107.615 257.680,107.339 251.352,107.165 244.053 C 106.992 236.753,106.777 229.059,106.688 226.955 L 106.527 223.128 107.404 222.739 C 107.887 222.526,108.467 222.174,108.694 221.957 C 108.921 221.740,109.217 221.563,109.352 221.563 C 109.486 221.563,109.980 221.206,110.450 220.771 L 111.304 219.980 113.074 220.783 C 114.047 221.225,115.088 221.722,115.386 221.887 C 115.685 222.052,116.177 222.188,116.480 222.189 C 116.783 222.190,117.413 222.391,117.881 222.634 C 118.348 222.878,119.543 223.178,120.537 223.300 C 121.531 223.422,122.444 223.679,122.567 223.870 C 122.885 224.367,147.432 224.363,147.746 223.866 C 147.868 223.672,148.848 223.412,149.922 223.288 C 150.996 223.165,151.875 222.949,151.875 222.809 C 151.875 222.669,152.437 222.460,153.123 222.344 C 153.810 222.228,154.451 222.005,154.548 221.848 C 154.645 221.691,154.944 221.563,155.213 221.563 C 155.993 221.563,163.367 217.822,163.555 217.331 C 163.739 216.852,164.511 217.003,165.313 217.676 C 166.108 218.343,172.625 221.559,173.185 221.561 C 173.475 221.562,173.792 221.691,173.889 221.848 C 173.986 222.005,174.628 222.228,175.314 222.344 C 176.001 222.460,176.563 222.683,176.563 222.840 C 176.563 222.997,176.919 223.125,177.354 223.125 C 177.789 223.125,178.653 223.337,179.273 223.596 C 179.893 223.855,181.158 224.156,182.084 224.265 C 183.010 224.374,183.842 224.584,183.933 224.732 C 184.025 224.879,184.490 225.000,184.968 225.000 C 185.446 225.000,186.950 225.316,188.309 225.703 C 190.605 226.356,191.359 226.404,198.906 226.370 C 210.563 226.318,214.169 225.746,216.595 223.562 C 217.563 222.691,218.125 223.341,218.125 225.330 C 218.125 228.220,219.235 228.906,223.903 228.906 L 227.387 228.906 227.265 232.969 C 227.066 239.672,227.820 251.250,228.458 251.250 C 228.603 251.250,228.808 251.777,228.914 252.422 C 229.175 254.014,230.599 256.875,231.131 256.875 C 231.368 256.875,231.563 257.143,231.563 257.471 C 231.563 258.726,236.616 262.156,238.497 262.178 C 238.960 262.183,239.425 262.328,239.531 262.500 C 239.639 262.674,241.091 262.813,242.813 262.813 C 244.534 262.813,245.986 262.674,246.094 262.500 C 246.200 262.328,246.784 262.188,247.391 262.188 C 248.022 262.188,248.836 261.920,249.290 261.563 C 249.727 261.219,250.265 260.938,250.487 260.938 C 251.678 260.938,254.490 256.213,255.322 252.813 C 255.511 252.039,255.820 250.844,256.009 250.156 C 256.597 248.009,256.303 240.917,255.595 240.172 C 255.439 240.009,255.308 239.516,255.302 239.078 C 255.296 238.640,255.020 237.719,254.688 237.031 C 253.919 235.439,254.027 233.990,254.819 235.272 C 254.911 235.421,255.798 235.949,256.790 236.444 C 257.782 236.939,258.734 237.450,258.906 237.579 C 259.182 237.787,263.572 240.876,265.107 241.943 C 265.424 242.164,265.987 242.587,266.357 242.885 C 267.560 243.850,267.645 243.906,268.530 244.299 C 272.308 245.978,275.625 243.688,275.625 239.402 L 275.625 236.728 273.359 234.612 C 272.113 233.448,270.826 232.410,270.498 232.305 C 270.170 232.200,269.608 231.804,269.248 231.425 C 268.888 231.045,268.383 230.634,268.125 230.511 C 267.415 230.173,266.495 229.604,265.462 228.864 C 264.950 228.498,263.547 227.668,262.344 227.020 C 259.434 225.453,259.439 225.456,257.746 224.658 C 256.937 224.276,256.347 223.845,256.437 223.701 C 256.666 223.330,257.813 223.372,257.813 223.750 C 257.813 224.676,263.284 223.819,263.918 222.793 C 264.018 222.632,264.325 222.500,264.602 222.500 C 265.194 222.500,265.363 222.359,268.516 219.224 C 269.848 217.899,270.938 216.690,270.938 216.535 C 270.938 216.381,271.237 215.911,271.602 215.490 C 272.299 214.689,272.847 213.811,273.469 212.500 L 273.839 211.719 274.067 212.656 C 274.192 213.172,274.523 214.016,274.801 214.531 M168.281 224.688 C 168.175 224.859,167.288 225.003,166.310 225.007 C 165.332 225.012,163.969 225.163,163.281 225.343 C 162.594 225.524,161.258 225.811,160.313 225.981 C 159.367 226.151,158.313 226.402,157.969 226.539 C 157.625 226.675,156.500 227.034,155.469 227.336 C 153.585 227.887,149.177 229.608,148.594 230.020 C 148.422 230.141,147.824 230.338,147.266 230.457 C 146.707 230.577,146.250 230.804,146.250 230.962 C 146.250 231.121,146.045 231.250,145.795 231.250 C 145.354 231.250,137.841 235.026,135.000 236.675 C 134.227 237.125,133.383 237.589,133.125 237.707 C 132.867 237.826,132.234 238.233,131.719 238.613 C 131.203 238.992,130.465 239.399,130.078 239.516 C 129.691 239.634,129.375 239.861,129.375 240.021 C 129.375 240.181,129.199 240.313,128.984 240.313 C 128.580 240.314,125.262 242.402,124.297 243.262 C 123.996 243.531,123.594 243.750,123.404 243.750 C 123.214 243.750,122.546 244.150,121.920 244.639 C 121.294 245.128,120.140 245.899,119.356 246.353 C 114.653 249.074,113.383 255.165,117.114 257.100 C 118.025 257.573,121.129 257.636,121.406 257.188 C 121.512 257.016,122.073 256.875,122.652 256.875 C 123.232 256.875,123.891 256.694,124.118 256.473 C 124.345 256.252,124.973 255.795,125.513 255.458 C 126.053 255.120,127.363 254.246,128.425 253.516 C 129.488 252.785,130.454 252.188,130.572 252.188 C 130.691 252.188,131.142 251.871,131.574 251.484 C 132.007 251.098,133.025 250.433,133.837 250.007 C 134.648 249.580,135.313 249.123,135.313 248.991 C 135.313 248.858,135.587 248.750,135.922 248.750 C 136.257 248.750,136.644 248.571,136.781 248.353 C 136.919 248.134,137.453 247.752,137.969 247.503 C 138.484 247.255,138.998 247.004,139.110 246.947 C 139.222 246.890,139.407 248.221,139.520 249.906 C 139.633 251.590,139.845 253.250,139.991 253.594 C 140.230 254.157,140.727 256.743,141.162 259.688 C 141.251 260.289,141.432 260.922,141.564 261.094 C 141.696 261.266,141.903 262.004,142.023 262.734 C 142.144 263.465,142.371 264.063,142.527 264.063 C 142.684 264.063,142.813 264.274,142.813 264.532 C 142.813 265.029,143.515 266.423,144.535 267.949 C 145.398 269.240,149.894 273.750,150.318 273.750 C 150.511 273.750,150.881 273.961,151.138 274.219 C 151.396 274.477,151.878 274.688,152.210 274.688 C 152.541 274.688,152.813 274.828,152.813 275.000 C 152.813 275.389,156.948 275.420,157.359 275.034 C 157.523 274.881,158.500 274.695,159.531 274.620 C 162.081 274.436,166.563 271.176,166.563 269.506 C 166.563 269.262,166.700 269.063,166.869 269.063 C 167.038 269.063,167.272 268.677,167.391 268.206 C 167.509 267.735,167.793 267.163,168.021 266.934 C 168.250 266.705,168.438 266.333,168.438 266.107 C 168.438 265.881,168.646 265.295,168.901 264.803 C 169.156 264.312,169.515 263.136,169.698 262.189 C 169.882 261.243,170.184 260.047,170.369 259.531 C 170.857 258.168,171.080 246.498,170.664 244.050 C 170.368 242.311,169.874 239.804,169.173 236.484 C 169.073 236.012,168.867 235.625,168.715 235.625 C 167.898 235.625,168.609 235.040,169.609 234.889 C 170.254 234.791,171.342 234.616,172.027 234.500 C 176.214 233.791,176.807 226.810,172.843 224.890 C 171.678 224.326,168.589 224.189,168.281 224.688 M232.984 279.587 C 231.603 280.334,230.959 281.274,230.948 282.561 C 230.922 285.474,229.412 285.868,216.875 286.225 C 209.268 286.442,208.155 286.571,204.261 287.689 C 203.425 287.929,202.414 288.125,202.014 288.125 C 201.614 288.125,201.208 288.253,201.111 288.410 C 201.014 288.567,200.337 288.794,199.608 288.914 C 198.878 289.035,198.141 289.242,197.969 289.375 C 197.797 289.509,196.905 289.719,195.987 289.842 C 195.069 289.965,193.944 290.262,193.487 290.500 C 193.030 290.739,192.348 290.935,191.972 290.936 C 191.595 290.937,191.208 291.066,191.111 291.223 C 191.014 291.380,190.343 291.608,189.620 291.730 C 188.897 291.852,188.089 292.055,187.825 292.180 C 182.002 294.940,181.226 295.020,178.438 293.145 C 175.645 291.267,174.768 290.938,172.560 290.938 C 170.424 290.938,168.438 291.924,168.438 292.985 C 168.438 293.234,168.297 293.438,168.125 293.438 C 167.675 293.438,167.739 297.064,168.203 297.895 C 169.517 300.246,171.248 301.796,174.219 303.281 C 174.906 303.625,175.539 303.992,175.625 304.097 C 175.952 304.498,178.078 304.776,180.938 304.794 C 184.827 304.817,186.273 304.535,188.853 303.252 C 189.340 303.010,189.973 302.808,190.260 302.802 C 190.547 302.796,191.344 302.520,192.031 302.188 C 192.719 301.855,193.511 301.579,193.792 301.573 C 194.074 301.567,194.706 301.352,195.199 301.096 C 195.691 300.839,196.472 300.628,196.935 300.627 C 197.397 300.626,197.850 300.504,197.942 300.357 C 198.033 300.209,198.911 299.994,199.893 299.878 C 200.874 299.763,201.833 299.540,202.023 299.382 C 202.213 299.224,202.925 298.959,203.606 298.793 C 204.287 298.627,205.617 298.257,206.563 297.971 C 207.508 297.685,209.195 297.314,210.313 297.146 C 211.430 296.978,213.066 296.689,213.950 296.504 C 214.916 296.301,216.285 296.263,217.387 296.409 C 221.198 296.912,228.301 296.631,229.219 295.941 C 229.391 295.812,230.407 295.611,231.477 295.495 C 232.547 295.378,233.813 295.080,234.289 294.831 C 234.766 294.582,235.302 294.378,235.480 294.377 C 237.571 294.365,240.938 288.774,240.938 285.315 C 240.938 280.008,237.191 277.310,232.984 279.587 " stroke="none" fill="#000000" fill-rule="evenodd"></path></g></svg>